<svg width="160" height="34" viewBox="0 0 160 34" fill="none" xmlns="http://www.w3.org/2000/svg">
<path d="M25.2829 28.4293H24.863C24.798 28.4293 24.7336 28.4165 24.6736 28.3916C24.6136 28.3667 24.559 28.3302 24.5131 28.2842C24.4671 28.2382 24.4307 28.1836 24.4058 28.1235C24.3809 28.0634 24.3681 27.9989 24.3681 27.9339V19.8281L22.3008 21.8978C22.2887 21.9148 22.2756 21.931 22.2615 21.9464L21.1436 23.0655V27.932C21.1436 28.0634 21.0915 28.1895 20.9987 28.2824C20.9059 28.3753 20.78 28.4275 20.6488 28.4275H20.2554C20.1641 28.4274 20.0746 28.4527 19.9967 28.5004C19.9189 28.5481 19.8557 28.6164 19.8143 28.6979C19.7728 28.7793 19.7546 28.8706 19.7618 28.9617C19.7689 29.0529 19.8011 29.1402 19.8548 29.2142L22.3685 32.6814C22.5665 32.953 22.9717 32.953 23.1698 32.6814L25.6835 29.2142C25.7367 29.1402 25.7684 29.053 25.7753 28.9622C25.7822 28.8714 25.7639 28.7804 25.7225 28.6993C25.6811 28.6182 25.6181 28.5501 25.5406 28.5024C25.463 28.4548 25.3738 28.4295 25.2829 28.4293Z" fill="#B50046"/>
<path d="M22.0895 22.109C21.3697 22.8311 20.5139 23.4031 19.5718 23.7918C18.6298 24.1806 17.62 24.3784 16.601 24.3738V24.3802H15.2701L11.8215 27.8318C11.7756 27.878 11.7211 27.9145 11.661 27.9395C11.601 27.9645 11.5366 27.9773 11.4716 27.9773C11.4066 27.9773 11.3422 27.9645 11.2822 27.9395C11.2221 27.9145 11.1676 27.878 11.1217 27.8318L10.8473 27.5571C10.7826 27.4924 10.7014 27.447 10.6125 27.4257C10.5236 27.4045 10.4305 27.4083 10.3437 27.4367C10.2568 27.4652 10.1795 27.5171 10.1203 27.5869C10.0612 27.6566 10.0225 27.7414 10.0085 27.8318L9.33066 32.0573C9.27798 32.3896 9.56471 32.678 9.89688 32.6251L14.1239 31.9529C14.2142 31.939 14.2989 31.9002 14.3686 31.841C14.4382 31.7817 14.4902 31.7043 14.5186 31.6174C14.547 31.5304 14.5508 31.4373 14.5296 31.3483C14.5083 31.2593 14.4629 31.1779 14.3983 31.1132L14.1019 30.8155C14.0559 30.7696 14.0194 30.715 13.9944 30.6549C13.9695 30.5948 13.9567 30.5303 13.9567 30.4652C13.9567 30.4001 13.9695 30.3357 13.9944 30.2756C14.0194 30.2155 14.0559 30.1609 14.1019 30.1149L22.2614 21.946C22.2755 21.9306 22.2887 21.9144 22.3008 21.8975L22.0895 22.109Z" fill="#731F9B"/>
<path d="M16.6044 24.374C15.5863 24.3781 14.5775 24.1801 13.6364 23.7913C12.6952 23.4026 11.8404 22.8309 11.1214 22.1093L10.1646 21.155H5.29635C5.16502 21.155 5.03905 21.1028 4.94609 21.01C4.85314 20.9171 4.8008 20.791 4.80056 20.6596V20.2658C4.80061 20.1744 4.77542 20.0847 4.72775 20.0068C4.68009 19.9288 4.61181 19.8656 4.53048 19.8241C4.44915 19.7826 4.35794 19.7644 4.26692 19.7715C4.17591 19.7787 4.08865 19.8109 4.0148 19.8646L0.548844 22.3785C0.277283 22.577 0.277282 22.9823 0.548844 23.1808L4.0148 25.6974C4.08865 25.7511 4.17591 25.7833 4.26692 25.7905C4.35794 25.7976 4.44915 25.7795 4.53048 25.7379C4.61181 25.6964 4.68009 25.6332 4.72775 25.5552C4.77542 25.4773 4.80061 25.3877 4.80056 25.2963V24.8759C4.8008 24.7444 4.85314 24.6184 4.94609 24.5255C5.03905 24.4326 5.16502 24.3805 5.29635 24.3805H16.6044" fill="#2B55AA"/>
<path d="M10.827 11.4109L12.0655 10.17V5.30248C12.0655 5.171 12.1176 5.04488 12.2104 4.95182C12.3032 4.85876 12.4291 4.80636 12.5604 4.80612H12.9538C13.0451 4.80634 13.1348 4.78124 13.2128 4.73359C13.2908 4.68593 13.354 4.61759 13.3956 4.53614C13.4372 4.45468 13.4555 4.36329 13.4483 4.27209C13.4412 4.1809 13.409 4.09345 13.3553 4.01945L10.8407 0.54948C10.6426 0.277862 10.2374 0.277861 10.0394 0.54948L7.52567 4.01945C7.47201 4.09339 7.43982 4.18075 7.43267 4.27187C7.42552 4.36298 7.44369 4.4543 7.48516 4.53573C7.52663 4.61715 7.58979 4.68551 7.66765 4.73323C7.74551 4.78095 7.83504 4.80617 7.92633 4.80612H8.34619C8.47753 4.80636 8.6034 4.85876 8.69618 4.95182C8.78896 5.04488 8.84107 5.171 8.84107 5.30248V13.4082L11.1206 11.1261L10.7849 11.4612C10.7976 11.4434 10.8117 11.4266 10.827 11.4109Z" fill="#62B146"/>
<path d="M16.5283 8.856H17.9389L21.3865 5.40344C21.4796 5.31072 21.6056 5.25866 21.7369 5.25866C21.8682 5.25866 21.9941 5.31072 22.0872 5.40344L22.3616 5.67818C22.4263 5.74285 22.5076 5.78833 22.5965 5.80958C22.6854 5.83083 22.7784 5.82702 22.8653 5.79856C22.9521 5.77011 23.0294 5.71813 23.0886 5.64839C23.1478 5.57865 23.1865 5.49386 23.2004 5.40344L23.8746 1.17794C23.9274 0.845376 23.64 0.558201 23.3075 0.611055L19.0823 1.28234C18.992 1.29633 18.9073 1.33509 18.8376 1.39432C18.768 1.45355 18.716 1.53094 18.6876 1.6179C18.6592 1.70487 18.6554 1.79802 18.6766 1.88702C18.6978 1.97602 18.7433 2.05739 18.8079 2.12213L19.1052 2.41884C19.1979 2.51176 19.2501 2.63776 19.2501 2.76914C19.2501 2.90052 19.1979 3.02652 19.1052 3.11943L10.8267 11.4111C10.8115 11.4268 10.7974 11.4436 10.7847 11.4615L11.1204 11.1263C11.8395 10.4048 12.6943 9.8331 13.6354 9.44436C14.5765 9.05563 15.5853 8.85752 16.6033 8.8615C16.5457 8.8615 16.4881 8.8615 16.4295 8.8615C16.4622 8.85597 16.4953 8.85413 16.5283 8.856Z" fill="#FFCC00"/>
<path d="M16.603 8.86111C17.6219 8.85671 18.6316 9.0546 19.5737 9.44334C20.5158 9.83208 21.3715 10.404 22.0914 11.1259L23.0437 12.0884H27.9138C28.0451 12.0884 28.1711 12.1406 28.264 12.2334C28.357 12.3263 28.4093 12.4524 28.4096 12.5838V12.9776C28.4096 13.0689 28.4349 13.1583 28.4825 13.2361C28.5301 13.3139 28.5982 13.3771 28.6794 13.4185C28.7606 13.46 28.8516 13.4783 28.9425 13.4712C29.0334 13.4642 29.1205 13.4322 29.1944 13.3788L32.6558 10.8576C32.9273 10.6591 32.9273 10.2538 32.6558 10.0553L29.1944 7.53869C29.1206 7.48488 29.0334 7.45258 28.9424 7.44538C28.8514 7.43819 28.7602 7.45637 28.6789 7.49792C28.5976 7.53947 28.5294 7.60276 28.4819 7.68076C28.4343 7.75876 28.4093 7.84843 28.4096 7.93981V8.36017C28.4093 8.49165 28.357 8.61767 28.264 8.71056C28.1711 8.80345 28.0451 8.85561 27.9138 8.85561H16.528C16.4948 8.85524 16.4616 8.85862 16.4292 8.86569C16.4877 8.86386 16.5454 8.86111 16.603 8.86111Z" fill="#ED6D26"/>
<path fill-rule="evenodd" clip-rule="evenodd" d="M19.3751 16.1365L18.2299 14.9899C17.7978 14.5598 17.2132 14.3184 16.6039 14.3184C15.9946 14.3184 15.4101 14.5598 14.978 14.9899L13.8336 16.1365C13.7063 16.2644 13.6348 16.4376 13.6348 16.6182C13.6348 16.7988 13.7063 16.972 13.8336 17.0999L14.978 18.2456C15.4099 18.6759 15.9945 18.9175 16.6039 18.9175C17.2133 18.9175 17.7979 18.6759 18.2299 18.2456L19.3751 17.0999C19.5025 16.972 19.574 16.7988 19.574 16.6182C19.574 16.4376 19.5025 16.2644 19.3751 16.1365ZM17.1121 17.0852C17.0199 17.186 16.8999 17.2571 16.7673 17.2895C16.6347 17.3219 16.4955 17.3142 16.3672 17.2674C16.239 17.2206 16.1275 17.1367 16.047 17.0264C15.9664 16.9161 15.9203 16.7844 15.9145 16.6479C15.9087 16.5114 15.9436 16.3762 16.0146 16.2595C16.0856 16.1428 16.1896 16.0498 16.3134 15.9923C16.4372 15.9348 16.5753 15.9154 16.7101 15.9365C16.845 15.9576 16.9705 16.0183 17.0709 16.1108C17.205 16.2348 17.2846 16.4069 17.2923 16.5895C17.3 16.7721 17.2352 16.9504 17.1121 17.0852Z" fill="black"/>
<path d="M31.509 18.6876H31.4852H31.4468H31.4193C31.3546 18.6873 31.2905 18.7001 31.2308 18.7251C31.1711 18.7501 31.117 18.7869 31.0717 18.8332L30.7744 19.1299C30.7286 19.1759 30.6741 19.2124 30.6141 19.2372C30.5542 19.262 30.4899 19.2747 30.425 19.2746C30.3943 19.2748 30.3637 19.2721 30.3335 19.2664C30.2381 19.2475 30.1506 19.2007 30.082 19.1317L23.6157 12.6579C23.5998 12.6422 23.5823 12.628 23.5635 12.6158L22.0844 11.1341C20.6274 9.68283 18.6557 8.86816 16.6005 8.86816C14.5453 8.86816 12.5736 9.68283 11.1166 11.1341L7.91504 14.3394L8.26813 14.6919L9.05664 15.4759L9.84423 16.2607L9.84972 16.2653L10.1955 16.6206L13.3971 13.4153C14.2492 12.5687 15.401 12.0937 16.6014 12.0937C17.8019 12.0937 18.9537 12.5687 19.8058 13.4153L21.5794 15.1993L23.0028 16.6316L23.3531 16.9833L24.1435 17.7782L24.9329 18.5722L25.2805 18.9184L26.7139 20.3433L27.7878 21.413C27.8345 21.4586 27.8717 21.5132 27.897 21.5734C27.9223 21.6337 27.9352 21.6984 27.9351 21.7637C27.9351 21.8289 27.9222 21.8934 27.8972 21.9536C27.8723 22.0138 27.8357 22.0685 27.7896 22.1145L27.5152 22.3892C27.4689 22.4346 27.4322 22.4887 27.4072 22.5485C27.3823 22.6083 27.3695 22.6724 27.3698 22.7372C27.3694 22.8437 27.4034 22.9473 27.4667 23.0328C27.53 23.1183 27.6192 23.181 27.721 23.2116L27.7539 23.2199C27.7649 23.2199 27.7759 23.2272 27.7869 23.229H27.7978L32.0267 23.9021C32.3589 23.955 32.6456 23.6666 32.5929 23.3343L31.9242 19.0988C31.9081 18.9948 31.859 18.8987 31.7843 18.8247C31.7095 18.7506 31.613 18.7026 31.509 18.6876Z" fill="#E0251B"/>
<path d="M19.808 19.8272C18.9563 20.6724 17.8056 21.1466 16.6064 21.1466C15.4072 21.1466 14.2565 20.6724 13.4048 19.8272L10.8051 17.2245L10.3368 16.7438L10.2105 16.6146L9.86476 16.2593L9.85927 16.2547L9.07168 15.4699L8.28317 14.6859L7.93008 14.3334L5.41637 11.8305C5.37019 11.7845 5.33353 11.7299 5.30852 11.6697C5.28351 11.6095 5.27063 11.5449 5.27063 11.4797C5.27063 11.4145 5.28351 11.35 5.30852 11.2898C5.33353 11.2296 5.37019 11.1749 5.41637 11.129L5.6908 10.8542C5.73689 10.8088 5.77348 10.7546 5.79845 10.6949C5.82343 10.6351 5.83627 10.571 5.83624 10.5062C5.83631 10.3992 5.80178 10.2949 5.73781 10.2091C5.67385 10.1233 5.58387 10.0604 5.48132 10.03H5.46394C5.44839 10.03 5.43375 10.0209 5.41729 10.0181L1.18936 9.34134H1.17929C0.849169 9.28723 0.563353 9.57508 0.615814 9.90547L1.28723 14.1365C1.30316 14.2405 1.35201 14.3367 1.4266 14.4109C1.50119 14.4851 1.59758 14.5333 1.70161 14.5486H1.7135C1.73055 14.5499 1.74768 14.5499 1.76473 14.5486H1.78851C1.85339 14.549 1.9177 14.5363 1.97757 14.5113C2.03745 14.4863 2.09168 14.4494 2.13703 14.403L2.4334 14.1072C2.47937 14.061 2.53397 14.0244 2.59409 13.9994C2.65421 13.9744 2.71866 13.9616 2.78375 13.9616C2.8123 13.9616 2.84079 13.9643 2.86882 13.9698C2.96521 13.9885 3.05379 14.0357 3.12312 14.1053L9.23908 20.2339C9.25662 20.2504 9.27526 20.2657 9.29488 20.2797L11.1244 22.1113C12.5813 23.5625 14.553 24.3771 16.6082 24.3771C18.6635 24.3771 20.6351 23.5625 22.0921 22.1113L25.2836 18.9114L24.936 18.5653L24.1494 17.7713L23.359 16.9764L23.0087 16.6247L19.808 19.8272Z" fill="#00A2DB"/>
<path fill-rule="evenodd" clip-rule="evenodd" d="M84.8141 12.9694C83.7774 11.6708 82.2449 11.0215 80.2166 11.0215C79.2043 11.0215 78.3069 11.1772 77.5245 11.4885C76.7693 11.7818 76.0903 12.2427 75.5386 12.8366C74.9842 13.4451 74.5624 14.1624 74.3 14.9429C74.0055 15.8284 73.8614 16.7571 73.8738 17.6903C73.8738 22.4586 76.0591 24.8424 80.4297 24.8418C81.8323 24.8418 83.0404 24.4773 84.0539 23.7484C85.0675 23.0194 85.7779 21.9784 86.1853 20.6255H82.6178C82.5574 20.8525 82.4519 21.0651 82.3076 21.2505C82.1633 21.4358 81.9832 21.5902 81.7781 21.7043C81.3211 21.9681 80.8007 22.1017 80.2733 22.0908C79.4195 22.0908 78.7308 21.7974 78.2069 21.2107C77.6831 20.6239 77.3946 19.8321 77.3416 18.8351H86.3755C86.3737 16.2232 85.8532 14.268 84.8141 12.9694ZM77.4449 16.6509C77.5163 15.7443 77.805 15.0376 78.3112 14.5308C78.5431 14.2876 78.8223 14.0946 79.1316 13.9637C79.4409 13.8328 79.7738 13.7668 80.1096 13.7698C80.4458 13.7695 80.7795 13.8281 81.0957 13.9429C81.4145 14.0581 81.7052 14.2402 81.9482 14.4768C82.2088 14.7345 82.4131 15.0435 82.5483 15.3844C82.707 15.7882 82.7928 16.217 82.8017 16.6509H77.4449Z" fill="black"/>
<path fill-rule="evenodd" clip-rule="evenodd" d="M155.402 21.704C154.945 21.9678 154.424 22.1015 153.897 22.0905C153.043 22.0905 152.354 21.7972 151.831 21.2104C151.308 20.6237 151.019 19.8318 150.965 18.8348H160C160 16.2199 159.48 14.2635 158.44 12.9655C157.4 11.6675 155.868 11.0182 153.844 11.0176C152.83 11.0176 151.933 11.1733 151.152 11.4846C150.396 11.7775 149.718 12.2385 149.167 12.8327C148.611 13.4406 148.189 14.1581 147.927 14.939C147.632 15.8244 147.488 16.7532 147.501 17.6864C147.501 22.4547 149.686 24.8385 154.057 24.8379C155.459 24.8379 156.667 24.4734 157.681 23.7445C158.694 23.0155 159.405 21.9745 159.813 20.6216H156.246C156.185 20.8496 156.079 21.063 155.934 21.249C155.789 21.435 155.608 21.5898 155.402 21.704ZM151.938 14.5306C152.17 14.2874 152.45 14.0945 152.759 13.9636C153.069 13.8327 153.402 13.7667 153.737 13.7696C154.074 13.7694 154.407 13.8279 154.724 13.9426C155.043 14.0583 155.333 14.2403 155.577 14.4766C155.837 14.7345 156.041 15.0435 156.176 15.3841C156.335 15.7879 156.421 16.2168 156.429 16.6507H151.072C151.143 15.7459 151.431 15.0392 151.938 14.5306Z" fill="black"/>
<path fill-rule="evenodd" clip-rule="evenodd" d="M53.22 18.6001L50.5279 7.12695H46.6366L44.1851 18.6001L41.2799 7.12695H37.3364L42.3465 24.8431H45.8106L48.6097 13.3168L51.3539 24.8431H54.9251L59.882 7.12695H56.0978L53.22 18.6001Z" fill="black"/>
<path fill-rule="evenodd" clip-rule="evenodd" d="M71.5484 12.1217C70.7051 11.3835 69.6074 11.0145 68.2554 11.0145C67.8237 11.0178 67.3939 11.0719 66.9747 11.1756C66.0416 11.3879 65.1606 11.7859 64.3842 12.346C64.372 10.6066 64.3598 8.86661 64.3476 7.12598H60.8862V24.843H64.3504V16.9232C64.3471 16.5033 64.4056 16.0851 64.5242 15.6823C64.632 15.3143 64.8082 14.97 65.0437 14.6676C65.2726 14.3757 65.5639 14.1388 65.8963 13.9743C66.2532 13.8011 66.6458 13.7143 67.0424 13.7207C67.8419 13.7207 68.4149 13.9038 68.7612 14.2701C69.1076 14.6365 69.2808 15.3169 69.2808 16.3115V24.8458H72.7724V15.5577C72.7724 14.2417 72.3928 12.8607 71.5484 12.1217Z" fill="black"/>
<path fill-rule="evenodd" clip-rule="evenodd" d="M104.335 21.0631V7.12646H100.978V22.1703C100.978 22.5212 101.047 22.8687 101.181 23.1929C101.315 23.5171 101.511 23.8117 101.759 24.0599C102.007 24.308 102.301 24.5049 102.625 24.6392C102.949 24.7735 103.296 24.8426 103.646 24.8426H105.983V21.9221H105.196C105.083 21.9227 104.971 21.9009 104.866 21.858C104.762 21.8151 104.667 21.7519 104.587 21.672C104.507 21.5922 104.443 21.4973 104.4 21.3928C104.357 21.2883 104.335 21.1762 104.335 21.0631Z" fill="black"/>
<path fill-rule="evenodd" clip-rule="evenodd" d="M116.923 17.3186C116.339 17.1013 115.743 16.9178 115.138 16.7691C114.463 16.6006 113.752 16.4098 113.005 16.1967C112.294 15.9995 111.761 15.7993 111.406 15.596C111.229 15.5002 111.082 15.3552 110.985 15.1784C110.902 15.0338 110.864 14.8683 110.874 14.7021C110.914 14.2928 111.336 14.0483 111.483 13.9631C111.598 13.8972 111.941 13.7149 112.898 13.7543C113.793 13.7918 114.24 13.8111 114.659 14.1325C115.127 14.4906 115.305 15.0126 115.377 15.3423H118.709C118.62 13.9191 118.127 12.8431 117.23 12.1141C116.332 11.3851 114.933 11.0188 113.032 11.0151C112.037 11.0151 111.189 11.1131 110.487 11.3091C109.785 11.5051 109.212 11.7762 108.768 12.1223C108.343 12.4452 108.012 12.8762 107.809 13.3706C107.611 13.8623 107.511 14.3881 107.515 14.9183C107.51 15.4814 107.633 16.0384 107.876 16.5466C108.115 17.0442 108.546 17.4886 109.167 17.88C109.699 18.2136 110.273 18.4739 110.874 18.6538C111.549 18.8663 112.437 19.1065 113.538 19.3746C114.046 19.4953 114.542 19.6646 115.018 19.8801C115.211 19.96 115.375 20.0978 115.488 20.2747C115.6 20.4516 115.655 20.6589 115.644 20.8682C115.644 21.3664 115.413 21.7175 114.951 21.9214C114.437 22.1368 113.883 22.2417 113.326 22.2291C112.472 22.2291 111.806 22.06 111.327 21.7218C110.847 21.3838 110.606 21.2217 110.606 20.5999H107.039C107.074 21.9333 107.629 22.7062 108.704 23.5625C109.779 24.4188 111.33 24.8446 113.355 24.8446C115.238 24.8446 116.664 24.4621 117.632 23.6971C118.601 22.9321 119.085 21.8637 119.085 20.4918C119.085 19.6371 118.898 18.9655 118.525 18.4771C118.152 17.9886 117.618 17.6025 116.923 17.3186Z" fill="black"/>
<path fill-rule="evenodd" clip-rule="evenodd" d="M123.785 16.6812H132.447V13.7561H123.785V10.2221H133.193L133.188 7.12207H120.183L120.187 24.8428H133.619V21.6943H123.785V16.6812Z" fill="black"/>
<path fill-rule="evenodd" clip-rule="evenodd" d="M98.3648 12.9694C97.3281 11.6708 95.7959 11.0215 93.7682 11.0215C92.7559 11.0215 91.8585 11.1772 91.0761 11.4885C90.3226 11.782 89.6454 12.2429 89.0957 12.8366C88.5408 13.445 88.1184 14.1623 87.8553 14.9429C87.5611 15.8285 87.4173 16.7572 87.43 17.6903C87.43 22.4586 89.6153 24.8424 93.9859 24.8418C95.3885 24.8418 96.5966 24.4773 97.6101 23.7484C98.6236 23.0194 99.3344 21.9784 99.7424 20.6255H96.1749C96.1147 20.853 96.0093 21.066 95.865 21.2518C95.7207 21.4377 95.5405 21.5925 95.3352 21.707C94.8778 21.9707 94.3572 22.1044 93.8295 22.0935C92.9757 22.0935 92.2872 21.8001 91.764 21.2134C91.2408 20.6267 90.952 19.8348 90.8978 18.8378H99.9326C99.9272 16.2241 99.4045 14.268 98.3648 12.9694ZM90.9965 16.6509C91.0667 15.7443 91.3554 15.0376 91.8628 14.5308C92.0946 14.2876 92.3739 14.0945 92.6832 13.9636C92.9925 13.8327 93.3254 13.7668 93.6612 13.7698C93.9974 13.7695 94.3312 13.8281 94.6473 13.9429C94.966 14.0583 95.2566 14.2403 95.4998 14.4768C95.7604 14.7345 95.9647 15.0435 96.0999 15.3844C96.2591 15.788 96.3449 16.217 96.3533 16.6509H90.9965Z" fill="black"/>
<path fill-rule="evenodd" clip-rule="evenodd" d="M142.998 19.5714C142.998 20.2827 142.754 20.8694 142.267 21.3316C141.779 21.7937 141.135 22.0251 140.335 22.0257C138.859 22.0257 138.121 21.2076 138.122 19.5714V11.0215H134.657V20.0778C134.646 20.7491 134.769 21.4159 135.017 22.0395C135.043 22.1008 135.069 22.1604 135.097 22.2226C135.321 22.713 135.633 23.1581 136.017 23.5359C136.451 23.9582 136.968 24.2852 137.536 24.4956C138.15 24.7234 138.801 24.8367 139.457 24.8299C140.217 24.8413 140.969 24.6722 141.652 24.3363C142.3 24.0066 142.748 23.5487 142.997 22.9626V25.0927C142.997 25.1275 142.997 25.1614 142.997 25.1962C142.992 25.5617 142.926 25.9237 142.8 26.2668C142.682 26.5966 142.501 26.9003 142.268 27.1606C142.053 27.395 141.795 27.5851 141.507 27.7202C141.452 27.7467 141.397 27.7687 141.34 27.7898L141.304 27.8026C141.248 27.8218 141.192 27.8401 141.134 27.8548C141.077 27.8695 141.036 27.8777 140.987 27.8869C140.978 27.8893 140.968 27.8908 140.959 27.8914L140.897 27.9006H140.866L140.782 27.9097H137.779V27.9189L136.925 30.8971H140.766C142.092 30.8987 143.377 30.4357 144.398 29.5884C144.537 29.4739 144.672 29.3531 144.795 29.2267C145.658 28.3644 146.222 27.2471 146.402 26.0397L146.419 25.9197C146.423 25.8822 146.428 25.8455 146.431 25.8071L146.438 25.7494L146.446 25.6523L146.457 25.4829C146.466 25.3364 146.471 25.1871 146.471 25.0351V11.0215H143.005L142.998 19.5714Z" fill="black"/>
</svg>
